<svg width="12" height="12" viewBox="0 0 12 12" fill="none" xmlns="http://www.w3.org/2000/svg">
<path d="M9.675 5.02C9.50705 4.16886 9.0488 3.40243 8.37853 2.85162C7.70826 2.30082 6.86755 1.9998 6 2C4.555 2 3.3 2.82 2.675 4.02C1.94012 4.09942 1.2605 4.4476 0.766744 4.99766C0.272986 5.54772 -8.58509e-05 6.26084 2.02464e-08 7C2.02464e-08 8.655 1.345 10 3 10H9.5C10.88 10 12 8.88 12 7.5C12 6.18 10.975 5.11 9.675 5.02ZM9.5 9H3C1.895 9 1 8.105 1 7C1 5.975 1.765 5.12 2.78 5.015L3.315 4.96L3.565 4.485C3.79494 4.03739 4.14393 3.66191 4.57356 3.3999C5.00319 3.13789 5.49678 2.99951 6 3C7.31 3 8.44 3.93 8.695 5.215L8.845 5.965L9.61 6.02C9.98587 6.04528 10.3382 6.212 10.5961 6.48659C10.854 6.76119 10.9983 7.12329 11 7.5C11 8.325 10.325 9 9.5 9ZM4 6.5H5.275V8H6.725V6.5H8L6 4.5L4 6.5Z" fill="white"/>
</svg>
