<svg width="24" height="24" viewBox="0 0 24 24" fill="none" xmlns="http://www.w3.org/2000/svg">
<path d="M12 6.0002C13.8387 5.99408 15.6419 6.50698 17.2021 7.47992C18.7624 8.45286 20.0164 9.84636 20.82 11.5002C20.24 12.695 19.4195 13.7572 18.41 14.6202L19.82 16.0302C21.21 14.8002 22.31 13.2602 23 11.5002C21.27 7.1102 17 4.0002 12 4.0002C10.73 4.0002 9.51 4.2002 8.36 4.5702L10.01 6.2202C10.66 6.0902 11.32 6.0002 12 6.0002ZM10.93 7.14019L13 9.2102C13.57 9.4602 14.03 9.9202 14.28 10.4902L16.35 12.5602C16.43 12.2202 16.49 11.8602 16.49 11.4902C16.5 9.0102 14.48 7.0002 12 7.0002C11.63 7.0002 11.28 7.05019 10.93 7.14019ZM2.01 3.8702L4.69 6.5502C3.04032 7.84136 1.76625 9.55048 1 11.5002C2.73 15.8902 7 19.0002 12 19.0002C13.52 19.0002 14.98 18.7102 16.32 18.1802L19.74 21.6002L21.15 20.1902L3.42 2.4502L2.01 3.8702ZM9.51 11.3702L12.12 13.9802C12.08 13.9902 12.04 14.0002 12 14.0002C11.337 14.0002 10.7011 13.7368 10.2322 13.268C9.76339 12.7991 9.5 12.1632 9.5 11.5002C9.5 11.4502 9.51 11.4202 9.51 11.3702ZM6.11 7.97019L7.86 9.7202C7.62291 10.2837 7.50052 10.8888 7.5 11.5002C7.5013 12.2442 7.68677 12.9763 8.03987 13.6312C8.39297 14.2861 8.90271 14.8434 9.52359 15.2534C10.1445 15.6634 10.8572 15.9133 11.5982 15.9807C12.3391 16.0482 13.0853 15.9312 13.77 15.6402L14.75 16.6202C13.87 16.8602 12.95 17.0002 12 17.0002C10.1613 17.0063 8.35813 16.4934 6.79788 15.5205C5.23763 14.5475 3.98362 13.154 3.18 11.5002C3.88 10.0702 4.9 8.89019 6.11 7.97019Z" fill="#9B9B9B"/>
</svg>
